<svg width="28" height="24" viewBox="0 0 28 24" fill="none" xmlns="http://www.w3.org/2000/svg">
<path d="M24.6667 5.33333V2.66667C24.6667 1.196 23.4707 0 22.0001 0H4.66675C2.46141 0 0.666748 1.79467 0.666748 4V20C0.666748 22.9347 3.05875 24 4.66675 24H24.6667C26.1374 24 27.3334 22.804 27.3334 21.3333V8C27.3334 6.52933 26.1374 5.33333 24.6667 5.33333ZM22.0001 17.3333H19.3334V12H22.0001V17.3333ZM4.66675 5.33333C4.32344 5.31798 3.99929 5.17079 3.76178 4.92242C3.52428 4.67406 3.39172 4.34365 3.39172 4C3.39172 3.65635 3.52428 3.32594 3.76178 3.07758C3.99929 2.82921 4.32344 2.68202 4.66675 2.66667H22.0001V5.33333H4.66675Z" fill="white"/>
</svg>
