<svg width="22" height="22" viewBox="0 0 22 22" fill="none" xmlns="http://www.w3.org/2000/svg">
<path fill-rule="evenodd" clip-rule="evenodd" d="M10.4697 1.13617C10.7626 0.843279 11.2375 0.843282 11.5304 1.13618L20.8638 10.4697C21.0044 10.6103 21.0834 10.8011 21.0834 11C21.0834 11.1989 21.0044 11.3897 20.8637 11.5303L11.5304 20.8635C11.2375 21.1564 10.7626 21.1564 10.4697 20.8635C10.1768 20.5706 10.1768 20.0957 10.4697 19.8028L18.5227 11.75H1.66675C1.25253 11.75 0.916748 11.4142 0.916748 11C0.916748 10.5858 1.25253 10.25 1.66675 10.25H18.5228L10.4697 2.19683C10.1768 1.90393 10.1768 1.42906 10.4697 1.13617Z" fill="#979C9E"/>
</svg>
