<svg width="32" height="32" viewBox="0 0 32 32" fill="none" xmlns="http://www.w3.org/2000/svg">
<path d="M0 16C0 7.16344 7.16344 0 16 0V0C24.8366 0 32 7.16344 32 16V16C32 24.8366 24.8366 32 16 32V32C7.16344 32 0 24.8366 0 16V16Z" fill="#CDCFD0"/>
<path d="M12.7464 22V21.118C13.8984 19.966 14.8764 18.958 15.6804 18.094C16.4844 17.218 17.0964 16.432 17.5164 15.736C17.9364 15.028 18.1464 14.368 18.1464 13.756C18.1464 13.096 17.9664 12.556 17.6064 12.136C17.2464 11.716 16.7004 11.506 15.9684 11.506C15.4884 11.506 15.0444 11.644 14.6364 11.92C14.2284 12.184 13.8564 12.508 13.5204 12.892L12.6744 12.046C13.1544 11.518 13.6644 11.098 14.2044 10.786C14.7564 10.462 15.4044 10.3 16.1484 10.3C17.2164 10.3 18.0564 10.612 18.6684 11.236C19.2804 11.848 19.5864 12.664 19.5864 13.684C19.5864 14.404 19.3824 15.136 18.9744 15.88C18.5784 16.612 18.0264 17.386 17.3184 18.202C16.6224 19.006 15.8184 19.882 14.9064 20.83C15.2184 20.806 15.5424 20.782 15.8784 20.758C16.2144 20.734 16.5324 20.722 16.8324 20.722H20.1624V22H12.7464Z" fill="white"/>
</svg>
