<svg width="32" height="32" viewBox="0 0 32 32" fill="none" xmlns="http://www.w3.org/2000/svg">
<path d="M0 16C0 7.16344 7.16344 0 16 0C24.8366 0 32 7.16344 32 16C32 24.8366 24.8366 32 16 32C7.16344 32 0 24.8366 0 16Z" fill="#CDCFD0"/>
<path d="M16.2744 22.216C15.3624 22.216 14.6004 22.054 13.9884 21.73C13.3764 21.394 12.8784 21.016 12.4944 20.596L13.2504 19.624C13.5984 19.984 14.0064 20.302 14.4744 20.578C14.9424 20.854 15.5124 20.992 16.1844 20.992C16.8804 20.992 17.4504 20.8 17.8944 20.416C18.3384 20.032 18.5604 19.522 18.5604 18.886C18.5604 18.43 18.4404 18.034 18.2004 17.698C17.9724 17.35 17.5884 17.08 17.0484 16.888C16.5204 16.696 15.8004 16.6 14.8884 16.6V15.466C15.7044 15.466 16.3464 15.37 16.8144 15.178C17.2944 14.986 17.6364 14.728 17.8404 14.404C18.0444 14.08 18.1464 13.72 18.1464 13.324C18.1464 12.76 17.9664 12.316 17.6064 11.992C17.2584 11.668 16.7784 11.506 16.1664 11.506C15.6864 11.506 15.2424 11.614 14.8344 11.83C14.4384 12.046 14.0664 12.328 13.7184 12.676L12.9264 11.74C13.3704 11.32 13.8624 10.978 14.4024 10.714C14.9424 10.438 15.5484 10.3 16.2204 10.3C17.2164 10.3 18.0384 10.558 18.6864 11.074C19.3344 11.578 19.6584 12.292 19.6584 13.216C19.6584 13.912 19.4664 14.482 19.0824 14.926C18.6984 15.37 18.1944 15.712 17.5704 15.952V16.024C18.2664 16.18 18.8544 16.51 19.3344 17.014C19.8144 17.506 20.0544 18.148 20.0544 18.94C20.0544 19.612 19.8864 20.194 19.5504 20.686C19.2144 21.178 18.7584 21.556 18.1824 21.82C17.6184 22.084 16.9824 22.216 16.2744 22.216Z" fill="white"/>
</svg>
