<svg width="32" height="32" viewBox="0 0 32 32" fill="none" xmlns="http://www.w3.org/2000/svg">
<path d="M0 16C0 7.16344 7.16344 0 16 0C24.8366 0 32 7.16344 32 16C32 24.8366 24.8366 32 16 32C7.16344 32 0 24.8366 0 16Z" fill="#CDCFD0"/>
<path d="M13.8984 17.644H17.4984V14.314C17.4984 14.002 17.5104 13.63 17.5344 13.198C17.5584 12.766 17.5764 12.4 17.5884 12.1H17.5164C17.3724 12.376 17.2224 12.646 17.0664 12.91C16.9104 13.174 16.7484 13.444 16.5804 13.72L13.8984 17.644ZM17.4984 22V18.832H12.3324V17.86L17.2464 10.516H18.9024V17.644H20.4684V18.832H18.9024V22H17.4984Z" fill="white"/>
</svg>
